<?xml version="1.0" encoding="UTF-8" standalone="no"?>
<svg
   xmlns:dc="http://purl.org/dc/elements/1.1/"
   xmlns:cc="http://creativecommons.org/ns#"
   xmlns:rdf="http://www.w3.org/1999/02/22-rdf-syntax-ns#"
   xmlns:svg="http://www.w3.org/2000/svg"
   xmlns="http://www.w3.org/2000/svg"
   xmlns:sodipodi="http://sodipodi.sourceforge.net/DTD/sodipodi-0.dtd"
   xmlns:inkscape="http://www.inkscape.org/namespaces/inkscape"
   height="28.015997"
   width="176"
   xml:space="preserve"
   viewBox="0 0 176.00001 28.015996"
   y="0px"
   x="0px"
   id="レイヤー_1"
   version="1.1"
   sodipodi:docname="logo.svg"
   inkscape:version="0.92.4 (5da689c313, 2019-01-14)"><sodipodi:namedview
   pagecolor="#ffffff"
   bordercolor="#666666"
   borderopacity="1"
   objecttolerance="10"
   gridtolerance="10"
   guidetolerance="10"
   inkscape:pageopacity="0"
   inkscape:pageshadow="2"
   inkscape:window-width="1920"
   inkscape:window-height="1137"
   id="namedview14"
   showgrid="false"
   fit-margin-top="0"
   fit-margin-left="0"
   fit-margin-right="0"
   fit-margin-bottom="0"
   inkscape:zoom="3.0340909"
   inkscape:cx="25.772281"
   inkscape:cy="3.6999996"
   inkscape:window-x="-8"
   inkscape:window-y="1042"
   inkscape:window-maximized="1"
   inkscape:current-layer="レイヤー_1" /><metadata
   id="metadata23"><rdf:RDF><cc:Work
       rdf:about=""><dc:format>image/svg+xml</dc:format><dc:type
         rdf:resource="http://purl.org/dc/dcmitype/StillImage" /><dc:title></dc:title></cc:Work></rdf:RDF></metadata><defs
   id="defs21" />
<style
   id="style2"
   type="text/css">
	.st0{fill:#932343;}
</style>
<path
   style="fill:#932343;stroke-width:0.59863245"
   id="path4"
   d="m 46.693335,6.584954 c 0.957808,0.419043 1.736034,1.137402 2.334666,2.21494 v -2.21494 h 3.89111 v 14.427043 c 0,1.975487 -0.359179,3.472068 -1.017675,4.429881 -1.137401,1.736033 -3.292481,2.574119 -6.525092,2.574119 -1.915627,0 -3.531934,-0.35918 -4.789062,-1.137401 -1.257128,-0.778223 -1.915624,-1.915625 -2.03535,-3.412206 h 4.310153 c 0.119726,0.478906 0.299319,0.778222 0.538772,1.017675 0.419039,0.35918 1.137402,0.53877 2.155073,0.53877 1.436721,0 2.394533,-0.478906 2.873439,-1.436718 0.299313,-0.598633 0.478906,-1.676171 0.478906,-3.112889 v -0.957812 c -0.35918,0.658495 -0.778226,1.137401 -1.257132,1.436718 -0.778218,0.598632 -1.795893,0.897949 -3.112884,0.897949 -1.975487,0 -3.531934,-0.658497 -4.669336,-2.035351 -1.197265,-1.376855 -1.736034,-3.232615 -1.736034,-5.567282 0,-2.274803 0.538769,-4.190427 1.676171,-5.687009 1.137401,-1.556444 2.693845,-2.334666 4.789059,-2.334666 0.838085,0 1.496584,0.119726 2.095216,0.359179 z m 1.316988,10.895112 c 0.658499,-0.718359 0.957812,-1.795898 0.957812,-3.352343 0,-1.436718 -0.299313,-2.514256 -0.897946,-3.292478 -0.598632,-0.778222 -1.436721,-1.137402 -2.454392,-1.137402 -1.376858,0 -2.334666,0.658496 -2.873439,1.975487 -0.299313,0.71836 -0.419039,1.556444 -0.419039,2.57412 0,0.897949 0.119726,1.676171 0.419039,2.334667 0.538773,1.257128 1.496581,1.915624 2.873439,1.915624 1.017671,0.05986 1.795893,-0.299317 2.394526,-1.017675 z"
   class="st0"
   inkscape:connector-curvature="0" />
<path
   style="fill:#932343;stroke-width:0.59863245"
   id="path6"
   d="m 61.77887,12.571279 c 0.718358,-0.119726 1.257131,-0.179589 1.61631,-0.359179 0.598633,-0.239453 0.838086,-0.598633 0.838086,-1.137402 0,-0.598633 -0.239453,-1.077538 -0.658496,-1.316992 -0.419043,-0.239452 -1.077542,-0.359179 -1.915627,-0.359179 -0.957808,0 -1.616307,0.239453 -2.035346,0.718359 -0.29932,0.359179 -0.478906,0.838086 -0.538773,1.376855 h -3.831247 c 0.05986,-1.316992 0.478906,-2.454393 1.137402,-3.292479 1.077538,-1.316992 2.873438,-2.035351 5.447557,-2.035351 1.676171,0 3.172752,0.35918 4.489743,1.017676 1.316991,0.658496 1.975486,1.915624 1.975486,3.771385 v 7.004 c 0,0.478905 0,1.077538 0,1.736033 0,0.53877 0.119727,0.897949 0.239453,1.077539 0.119727,0.17959 0.29932,0.359179 0.598633,0.478906 v 0.598633 h -4.310156 c -0.119724,-0.299317 -0.179587,-0.598633 -0.23945,-0.838086 -0.05986,-0.299316 -0.05986,-0.598632 -0.119726,-0.897949 -0.53877,0.598633 -1.197265,1.077538 -1.915624,1.496581 -0.838085,0.478906 -1.85576,0.71836 -2.933298,0.71836 -1.376858,0 -2.514259,-0.419043 -3.412208,-1.197266 -0.897948,-0.778221 -1.376851,-1.915624 -1.376851,-3.352341 0,-1.855761 0.718355,-3.232616 2.155073,-4.070701 0.778225,-0.478907 1.975487,-0.778222 3.531931,-0.957812 z m 2.454396,1.855761 c -0.239453,0.179589 -0.53877,0.299316 -0.778222,0.359179 -0.239457,0.119727 -0.598636,0.17959 -1.077542,0.299316 l -0.897945,0.17959 c -0.838089,0.119727 -1.436721,0.35918 -1.85576,0.538769 -0.598633,0.35918 -0.957812,0.897949 -0.957812,1.676172 0,0.658495 0.179586,1.197264 0.598632,1.496581 0.35918,0.299316 0.838085,0.478906 1.376851,0.478906 0.897949,0 1.676174,-0.239454 2.394533,-0.778223 0.718359,-0.478906 1.137401,-1.436718 1.137401,-2.753709 V 14.42704 Z"
   class="st0"
   inkscape:connector-curvature="0" />
<path
   style="fill:#932343;stroke-width:0.59863245"
   id="path8"
   d="m 79.25894,6.225775 c 0.05986,0 0.179587,0 0.35918,0 v 4.0707 c -0.239453,0 -0.478906,-0.05986 -0.658496,-0.05986 -0.179589,0 -0.359179,0 -0.478906,0 -1.61631,0 -2.693845,0.53877 -3.232614,1.556445 -0.299316,0.598633 -0.478909,1.496581 -0.478909,2.693846 v 7.303316 H 70.758358 V 6.584954 h 3.771384 v 2.633983 c 0.598635,-1.017675 1.137404,-1.736034 1.616307,-2.095214 0.718359,-0.598632 1.736037,-0.957812 2.933302,-0.957812 0.05986,0.05986 0.119723,0.05986 0.179589,0.05986 z"
   class="st0"
   inkscape:connector-curvature="0" />
<path
   style="fill:#932343;stroke-width:0.59863245"
   id="path10"
   d="m 100.09135,6.644817 c 0.6585,0.239453 1.25713,0.718359 1.7959,1.376855 0.41904,0.538769 0.71836,1.197265 0.83808,1.975488 0.11973,0.538769 0.11973,1.257127 0.11973,2.274803 v 9.57812 h -4.070702 v -9.697847 c 0,-0.598632 -0.119727,-1.077538 -0.299313,-1.436718 C 98.115862,9.99716 97.45737,9.63798 96.499558,9.63798 c -1.077541,0 -1.85576,0.478906 -2.274806,1.376855 -0.239453,0.478906 -0.299313,1.077538 -0.299313,1.736034 v 9.03935 h -4.01084 v -9.03935 c 0,-0.897949 -0.119726,-1.556445 -0.299316,-1.975487 -0.359179,-0.718359 -1.017675,-1.077539 -1.975487,-1.077539 -1.137401,0 -1.915626,0.35918 -2.274806,1.077539 -0.239453,0.419042 -0.299313,1.017675 -0.299313,1.85576 v 9.159077 h -4.01084 V 6.584954 h 3.891114 v 2.21494 c 0.478906,-0.778222 0.957812,-1.376854 1.376851,-1.676171 0.778222,-0.598632 1.7959,-0.897948 2.993165,-0.897948 1.137401,0 2.095213,0.239453 2.813572,0.778222 0.598632,0.478906 1.017675,1.077538 1.316991,1.85576 0.538769,-0.897948 1.197268,-1.556444 1.915623,-1.975487 0.838086,-0.419042 1.736037,-0.598632 2.753709,-0.598632 0.658496,-0.05986 1.316995,0.119727 1.975488,0.359179 z"
   class="st0"
   inkscape:connector-curvature="0" />
<path
   style="fill:#932343;stroke-width:0.59863245"
   id="path12"
   d="M 109.72933,4.789057 H 105.7185 V 1.137399 h 4.01083 z m -4.01083,1.795897 h 4.01083 v 15.205265 h -4.01083 z"
   class="st0"
   inkscape:connector-curvature="0" />
<path
   style="fill:#932343;stroke-width:0.59863245"
   id="path14"
   d="M 111.16605,9.578117 V 6.764544 h 2.09521 V 2.514253 h 3.95098 v 4.250291 h 2.45439 v 2.813573 h -2.45439 v 8.021675 c 0,0.598632 0.0599,1.017675 0.23945,1.137402 0.17959,0.17959 0.6585,0.239453 1.43672,0.239453 0.11972,0 0.23945,0 0.35918,0 0.11972,0 0.23945,0 0.41904,0 v 2.993162 l -1.85576,0.05986 c -1.85576,0.05986 -3.17275,-0.239453 -3.83125,-0.957812 -0.41904,-0.478906 -0.65849,-1.137401 -0.65849,-2.095213 v -9.39853 z"
   class="st0"
   inkscape:connector-curvature="0" />
<path
   style="fill:#932343;stroke-width:0.59863245"
   id="path16"
   d="M 28.315316,10.236612 17.120889,0.05986 c 0,0 0,0 -0.05986,0 0,0 0,0 -0.05986,-0.05986 0,0 -0.05986,0 -0.05986,0 -0.05986,0 -0.05986,0 -0.119726,0 -0.05986,0 -0.05986,0 -0.119727,0 0,0 -0.05986,0 -0.05986,0 0,0 0,0 0,0 0,0 0,0 -0.05986,0 L 0.17958974,10.176749 C 0.05986325,10.236612 0,10.416202 0,10.535929 v 4.489743 4.489744 4.489743 c 0,0.239453 0.17958974,0.419043 0.41904273,0.419043 H 16.821573 c 0,0 0,0 0,0 H 28.016 c 0.239453,0 0.419043,-0.17959 0.419043,-0.419043 v -4.489743 -4.489744 -4.489743 c 0,-0.05986 0,-0.17959 -0.119727,-0.299317 z m -0.718359,5.088377 v 3.651658 L 17.300479,15.863758 V 9.099211 l 8.740034,5.267966 z M 0.83808546,19.03651 V 15.384852 L 16.40253,8.979484 v 6.884274 l -1.316992,0.299316 z M 27.596957,14.307313 17.300479,8.081535 v -6.64482 l 10.296478,9.39853 z M 0.83808546,10.835245 16.40253,1.197262 v 6.82441 L 0.83808546,14.42704 Z m 0,9.099214 L 2.1550769,19.635142 16.342667,16.701843 V 23.64598 H 0.77822223 V 19.934459 Z M 27.596957,23.64598 H 17.300479 v -6.884273 l 10.296478,3.112888 z"
   class="st0"
   inkscape:connector-curvature="0" />
<path
   class="a"
   d="m 133.4,10.307998 4.6,4.6 4.6,-4.6 1.4,1.4 -6,6 -6,-6 z"
   id="path28"
   style="fill:#942343"
   inkscape:connector-curvature="0" /></svg>