<?xml version="1.0" encoding="UTF-8" standalone="no"?>
<!-- Generator: Adobe Illustrator 24.0.1, SVG Export Plug-In . SVG Version: 6.00 Build 0)  -->

<svg
   xmlns:dc="http://purl.org/dc/elements/1.1/"
   xmlns:cc="http://creativecommons.org/ns#"
   xmlns:rdf="http://www.w3.org/1999/02/22-rdf-syntax-ns#"
   xmlns:svg="http://www.w3.org/2000/svg"
   xmlns="http://www.w3.org/2000/svg"
   xmlns:sodipodi="http://sodipodi.sourceforge.net/DTD/sodipodi-0.dtd"
   xmlns:inkscape="http://www.inkscape.org/namespaces/inkscape"
   version="1.1"
   id="レイヤー_1"
   x="0px"
   y="0px"
   viewBox="0 0 360.00001 84.28214"
   xml:space="preserve"
   sodipodi:docname="logo-login.svg"
   width="360"
   height="84.282143"
   inkscape:version="0.92.4 (5da689c313, 2019-01-14)"><metadata
   id="metadata23"><rdf:RDF><cc:Work
       rdf:about=""><dc:format>image/svg+xml</dc:format><dc:type
         rdf:resource="http://purl.org/dc/dcmitype/StillImage" /><dc:title /></cc:Work></rdf:RDF></metadata><defs
   id="defs21" /><sodipodi:namedview
   pagecolor="#ffffff"
   bordercolor="#666666"
   borderopacity="1"
   objecttolerance="10"
   gridtolerance="10"
   guidetolerance="10"
   inkscape:pageopacity="0"
   inkscape:pageshadow="2"
   inkscape:window-width="1920"
   inkscape:window-height="1137"
   id="namedview19"
   showgrid="false"
   fit-margin-top="0"
   fit-margin-left="0"
   fit-margin-right="0"
   fit-margin-bottom="0"
   inkscape:zoom="1.5857199"
   inkscape:cx="31.374918"
   inkscape:cy="185.5113"
   inkscape:window-x="-8"
   inkscape:window-y="1042"
   inkscape:window-maximized="1"
   inkscape:current-layer="レイヤー_1" />
<style
   type="text/css"
   id="style2">
	.st0{fill:#932343;}
</style>
<path
   class="st0"
   d="m 144.42322,22.043022 c 2.59328,1.134567 4.70034,3.079541 6.32115,5.996999 v -5.996999 h 10.53527 v 39.061531 c 0,5.348674 -0.97249,9.4007 -2.75537,11.993998 -3.07955,4.700349 -8.91447,6.969484 -17.66683,6.969484 -5.1866,0 -9.56279,-0.972487 -12.9665,-3.079539 -3.40369,-2.107054 -5.18659,-5.186594 -5.51075,-9.238621 h 11.66983 c 0.32416,1.29665 0.81042,2.107054 1.45874,2.755378 1.13456,0.972487 3.07954,1.458731 5.83491,1.458731 3.88995,0 6.48324,-1.296649 7.77989,-3.889946 0.8104,-1.620811 1.29665,-4.53827 1.29665,-8.428214 v -2.593297 c -0.97249,1.782892 -2.10706,3.079539 -3.40371,3.889945 -2.10704,1.620811 -4.86241,2.431216 -8.4282,2.431216 -5.34867,0 -9.56279,-1.782892 -12.64233,-5.510756 -3.24162,-3.727864 -4.70034,-8.752375 -4.70034,-15.073536 0,-6.15908 1.45872,-11.345672 4.53827,-15.3977 3.07953,-4.214107 7.29363,-6.321159 12.96647,-6.321159 2.26913,0 4.05204,0.324162 5.67285,0.972485 z m 3.56577,29.49875 c 1.7829,-1.944972 2.5933,-4.862431 2.5933,-9.076539 0,-3.889945 -0.8104,-6.807403 -2.43121,-8.914457 -1.62081,-2.107052 -3.88996,-3.07954 -6.64532,-3.07954 -3.72787,0 -6.32116,1.782891 -7.7799,5.348674 -0.81039,1.944974 -1.13455,4.214107 -1.13455,6.969486 0,2.431216 0.32416,4.538269 1.13455,6.321161 1.45874,3.403701 4.05203,5.186592 7.7799,5.186592 2.75536,0.162081 4.86242,-0.810404 6.48323,-2.755377 z"
   id="path4"
   inkscape:connector-curvature="0"
   style="fill:#932343;stroke-width:1.62081039" />
<path
   class="st0"
   d="m 185.26763,38.251126 c 1.94497,-0.324161 3.40371,-0.486242 4.3762,-0.972486 1.62081,-0.648324 2.26913,-1.62081 2.26913,-3.07954 0,-1.62081 -0.64832,-2.917457 -1.78289,-3.565783 -1.13456,-0.648323 -2.91747,-0.972486 -5.1866,-0.972486 -2.59329,0 -4.37619,0.648324 -5.51075,1.944974 -0.81042,0.972485 -1.29664,2.269134 -1.45874,3.727863 H 167.6008 c 0.16208,-3.565782 1.29665,-6.645323 3.07954,-8.914458 2.91746,-3.565783 7.7799,-5.510755 14.74937,-5.510755 4.53828,0 8.5903,0.972487 12.15608,2.755378 3.56578,1.782892 5.34868,5.186593 5.34868,10.211106 v 18.963482 c 0,1.296647 0,2.917458 0,4.700348 0,1.458731 0.32416,2.431216 0.64832,2.91746 0.32416,0.486243 0.81041,0.972486 1.62081,1.296649 v 1.62081 h -11.66984 c -0.32415,-0.810405 -0.48624,-1.62081 -0.64831,-2.269135 -0.16209,-0.810406 -0.16209,-1.620809 -0.32416,-2.431215 -1.45874,1.620809 -3.24162,2.917458 -5.1866,4.052026 -2.26914,1.296647 -5.02451,1.944972 -7.94197,1.944972 -3.72787,0 -6.80741,-1.134568 -9.23862,-3.241621 -2.43122,-2.107052 -3.72786,-5.186593 -3.72786,-9.076538 0,-5.024512 1.94496,-8.752377 5.83491,-11.021511 2.10706,-1.296649 5.34867,-2.107053 9.56277,-2.593297 z m 6.64533,5.024513 c -0.64832,0.486242 -1.45873,0.810405 -2.10706,0.972485 -0.64833,0.324163 -1.62081,0.486244 -2.91746,0.810406 l -2.43121,0.486244 c -2.26914,0.324161 -3.88995,0.972486 -5.02451,1.458729 -1.62081,0.972486 -2.59329,2.431216 -2.59329,4.538269 0,1.782892 0.48623,3.241621 1.62081,4.052027 0.97248,0.810404 2.26913,1.296647 3.72785,1.296647 2.43121,0 4.53827,-0.648324 6.48325,-2.107053 1.94497,-1.296648 3.07954,-3.889946 3.07954,-7.455728 v -4.052026 z"
   id="path6"
   inkscape:connector-curvature="0"
   style="fill:#932343;stroke-width:1.62081039" />
<path
   class="st0"
   d="m 232.5953,21.070537 c 0.16207,0 0.48623,0 0.97248,0 v 11.021509 c -0.64832,0 -1.29665,-0.162081 -1.78288,-0.162081 -0.48625,0 -0.97249,0 -1.29665,0 -4.3762,0 -7.29365,1.45873 -8.75238,4.214107 -0.8104,1.620812 -1.29665,4.052027 -1.29665,7.293648 V 63.211607 H 209.57979 V 22.043022 h 10.21111 v 7.131566 c 1.6208,-2.755378 3.07954,-4.70035 4.37618,-5.672837 1.94497,-1.620809 4.70036,-2.593296 7.94198,-2.593296 0.16207,0.162082 0.32415,0.162082 0.48624,0.162082 z"
   id="path8"
   inkscape:connector-curvature="0"
   style="fill:#932343;stroke-width:1.62081039" />
<path
   class="st0"
   d="m 288.99949,22.205103 c 1.78291,0.648324 3.40372,1.944973 4.86244,3.727863 1.13457,1.45873 1.94497,3.241622 2.26914,5.348677 0.32416,1.458728 0.32416,3.403701 0.32416,6.159078 V 63.373688 H 285.43371 V 37.116559 c 0,-1.62081 -0.32416,-2.917459 -0.8104,-3.889945 -0.97249,-1.944971 -2.75537,-2.917459 -5.34866,-2.917459 -2.91747,0 -5.02452,1.29665 -6.15909,3.727864 -0.64832,1.296649 -0.8104,2.917459 -0.8104,4.70035 V 63.211607 H 261.44572 V 38.737369 c 0,-2.431215 -0.32416,-4.214106 -0.8104,-5.348674 -0.97248,-1.944971 -2.75538,-2.917459 -5.34867,-2.917459 -3.07955,0 -5.1866,0.972488 -6.15909,2.917459 -0.64832,1.134568 -0.8104,2.755377 -0.8104,5.024512 v 24.7984 H 237.45772 V 22.043022 H 247.993 v 5.996999 c 1.29665,-2.107055 2.5933,-3.727864 3.72786,-4.53827 2.10705,-1.620809 4.86244,-2.431214 8.10405,-2.431214 3.07955,0 5.67284,0.648324 7.61781,2.107052 1.62081,1.296649 2.75538,2.917458 3.56578,5.024513 1.45874,-2.431216 3.24163,-4.214107 5.1866,-5.348675 2.26913,-1.134566 4.70036,-1.620809 7.45572,-1.620809 1.78289,-0.162081 3.56579,0.324162 5.34867,0.972485 z"
   id="path10"
   inkscape:connector-curvature="0"
   style="fill:#932343;stroke-width:1.62081039" />
<path
   class="st0"
   d="M 315.09454,17.18059 H 304.23512 V 7.2936469 h 10.85942 z m -10.85942,4.862432 h 10.85942 v 41.168585 h -10.85942 z"
   id="path12"
   inkscape:connector-curvature="0"
   style="fill:#932343;stroke-width:1.62081039" />
<path
   class="st0"
   d="m 318.98449,30.147074 v -7.617809 h 5.67283 V 11.021511 h 10.69736 V 22.529265 H 342 v 7.617809 h -6.64532 v 21.71886 c 0,1.620811 0.16208,2.755377 0.64832,3.07954 0.48625,0.486244 1.7829,0.648325 3.88995,0.648325 0.32415,0 0.64832,0 0.97248,0 0.32416,0 0.64832,0 1.13457,0 v 8.10405 l -5.02451,0.162081 c -5.02452,0.162081 -8.59029,-0.648323 -10.3732,-2.593296 -1.13455,-1.296649 -1.78287,-3.079539 -1.78287,-5.672835 V 30.147074 Z"
   id="path14"
   inkscape:connector-curvature="0"
   style="fill:#932343;stroke-width:1.62081039" />
<path
   class="st0"
   d="M 94.664332,31.929965 64.355179,4.3761888 c 0,0 0,0 -0.162083,0 0,0 0,0 -0.16208,-0.162081 0,0 -0.162081,0 -0.162081,0 -0.162082,0 -0.162082,0 -0.324163,0 -0.162081,0 -0.162081,0 -0.324162,0 0,0 -0.16208,0 -0.16208,0 0,0 0,0 0,0 0,0 0,0 -0.162082,0 L 18.486243,31.767886 C 18.162081,31.929965 18,32.416208 18,32.740371 v 12.156078 12.156078 12.156077 c 0,0.648325 0.486243,1.134568 1.134567,1.134568 h 44.410205 c 0,0 0,0 0,0 h 30.309155 c 0.648324,0 1.134568,-0.486243 1.134568,-1.134568 V 57.052527 44.896449 32.740371 c 0,-0.162081 0,-0.486244 -0.324163,-0.810406 z m -1.944972,13.77689 v 9.886944 L 64.841421,47.165584 V 28.850426 L 88.505253,43.113558 Z M 20.269135,55.755879 v -9.886944 l 42.14107,-17.342671 v 18.63932 l -3.565783,0.810405 z M 92.71936,42.951477 64.841421,26.095047 V 8.1040529 L 92.71936,33.550776 Z M 20.269135,33.550776 62.410205,7.4557289 V 25.932966 l -42.14107,17.342673 z m 0,24.636319 3.565782,-0.810406 38.413208,-7.94197 v 18.8014 H 20.107053 V 58.187095 Z M 92.71936,68.236119 H 64.841421 V 49.5968 l 27.877939,8.428213 z"
   id="path16"
   inkscape:connector-curvature="0"
   style="fill:#932343;stroke-width:1.62081039" />
</svg>