<svg id="レイヤー_1" data-name="レイヤー 1" xmlns="http://www.w3.org/2000/svg" viewBox="0 0 174.8 35.2"><defs><style>.cls-1{fill:#fdfdfd;}</style></defs><title>アートボード 1</title><path class="cls-1" d="M173.4,21.3l-4.6-4.6-4.6,4.6-1.4-1.4,6-6,6,6Z"/><path class="cls-1" d="M46.7,12.6a4.12,4.12,0,0,1,2,1.9V12.6h3.4V25.1a6.63,6.63,0,0,1-.9,3.9c-1,1.5-2.9,2.2-5.7,2.2a7.35,7.35,0,0,1-4.1-1,3.72,3.72,0,0,1-1.8-3h3.8a2.62,2.62,0,0,0,.5.9,3.2,3.2,0,0,0,1.9.5,2.5,2.5,0,0,0,2.5-1.2,6.35,6.35,0,0,0,.4-2.7v-.8a3.48,3.48,0,0,1-1.1,1.3,5,5,0,0,1-2.7.8,4.94,4.94,0,0,1-4.1-1.8,7.06,7.06,0,0,1-1.5-4.8,8.18,8.18,0,0,1,1.5-5,5,5,0,0,1,4.2-2A3.21,3.21,0,0,1,46.7,12.6Zm1.2,9.5a4.28,4.28,0,0,0,.8-2.9,4.43,4.43,0,0,0-.8-2.9,2.28,2.28,0,0,0-2.1-1A2.72,2.72,0,0,0,43.3,17a8.51,8.51,0,0,0-.4,2.2,5.22,5.22,0,0,0,.4,2.1,2.77,2.77,0,0,0,4.6.8Z"/><path class="cls-1" d="M59.8,17.8l1.4-.3a1,1,0,0,0,.7-1,1.15,1.15,0,0,0-.6-1.1,4.67,4.67,0,0,0-1.7-.3,2.33,2.33,0,0,0-1.8.6,6.12,6.12,0,0,0-.5,1.2H54A5.08,5.08,0,0,1,55,14a6.47,6.47,0,0,1,4.8-1.7,8.6,8.6,0,0,1,3.9.9,3.48,3.48,0,0,1,1.7,3.3v7.6a1.49,1.49,0,0,0,.2.9,1,1,0,0,0,.5.4v.5H62.3a2.35,2.35,0,0,1-.2-.8c0-.2-.1-.5-.1-.8a7,7,0,0,1-1.7,1.3,4,4,0,0,1-2.4.7,4.06,4.06,0,0,1-3-1,3.52,3.52,0,0,1-1.2-2.9,3.67,3.67,0,0,1,1.9-3.5,6.81,6.81,0,0,1,3.1-.8ZM62,19.4c-.2.1-.5.2-.7.3a2.92,2.92,0,0,1-.9.2l-.8.1a4.28,4.28,0,0,0-1.6.5,1.76,1.76,0,0,0-.8,1.5,1.9,1.9,0,0,0,.5,1.3,1.75,1.75,0,0,0,1.2.4A3.14,3.14,0,0,0,61,23a2.8,2.8,0,0,0,1-2.4Z"/><path class="cls-1" d="M75,12.3h.3v3.5h-1a2.93,2.93,0,0,0-2.8,1.4,5.07,5.07,0,0,0-.4,2.4v6.3H67.6V12.6h3.3v2.3a4.89,4.89,0,0,1,1.4-1.8,5,5,0,0,1,2.7-.8Z"/><path class="cls-1" d="M93.1,12.7a2.55,2.55,0,0,1,1.5,1.2,3.81,3.81,0,0,1,.8,1.7,13.4,13.4,0,0,1,.1,2v8.3H92V17.5a5,5,0,0,0-.2-1.2,2,2,0,0,0-1.8-1,1.88,1.88,0,0,0-2,1.2,3.89,3.89,0,0,0-.2,1.5v7.9H84.3V18a9.85,9.85,0,0,0-.2-1.7,1.94,1.94,0,0,0-1.7-1c-1,0-1.7.3-2,1a4.53,4.53,0,0,0-.3,1.6v8H76.6V12.7H80v1.9a4.43,4.43,0,0,1,1.2-1.5,4.38,4.38,0,0,1,2.5-.8,4.3,4.3,0,0,1,2.5.7,3.55,3.55,0,0,1,1.1,1.6A4.62,4.62,0,0,1,89,12.9a5,5,0,0,1,2.4-.6A4.71,4.71,0,0,1,93.1,12.7Z"/><path class="cls-1" d="M101.5,11.1H98V7.9h3.5ZM98,12.6h3.5V25.8H98Z"/><path class="cls-1" d="M102.8,15.2V12.8h1.8V9.1H108v3.7h2.1v2.5H108v7a1.8,1.8,0,0,0,.2,1,3,3,0,0,0,1.3.2h.6v2.6l-1.6.1c-1.6.1-2.8-.2-3.3-.8a2.33,2.33,0,0,1-.6-1.8V15.5h-1.8Z"/><path class="cls-1" d="M117.3,25.8V7.9h2.6l5.9,15.8h0l5.8-15.8h2.6V25.8h-1.7V9.8h0l-5.9,16H125l-5.9-16h0v16Z"/><path class="cls-1" d="M137.1,25.8V7.9H149V9.3H138.8v6.5H148v1.5h-9.2v7.1h10.5v1.4Z"/><path class="cls-1" d="M16.3,0A16.22,16.22,0,0,0,0,16.2,16.43,16.43,0,0,0,4.8,27.8a.49.49,0,0,0,.7-.7A15.13,15.13,0,0,1,1,16.3a15.3,15.3,0,1,1,30.6,0h0a15.13,15.13,0,0,1-4.5,10.8.48.48,0,0,0,0,.7h0c.1.1.2.1.4.1s.3,0,.4-.1a16,16,0,0,0,4.8-11.5A16.45,16.45,0,0,0,16.3,0Z"/><path class="cls-1" d="M16.3,4.5A11.74,11.74,0,0,0,7.8,24.4a.49.49,0,1,0,.7-.7h0A10.75,10.75,0,1,1,24.1,8.9a10.75,10.75,0,0,1,0,14.9.48.48,0,0,0,0,.7h0a.37.37,0,0,0,.3.1.52.52,0,0,0,.4-.2,11.71,11.71,0,0,0-.3-16.6A11.83,11.83,0,0,0,16.3,4.5Z"/><path class="cls-1" d="M16.3,9A7.34,7.34,0,0,0,9,16.3a7,7,0,0,0,1.8,4.8.52.52,0,0,0,.4.2.37.37,0,0,0,.3-.1.48.48,0,0,0,0-.7h0a6.2,6.2,0,0,1-1.6-4.1,6.3,6.3,0,0,1,12.6,0,6.2,6.2,0,0,1-1.6,4.1.49.49,0,0,0,.7.7,7,7,0,0,0,1.8-4.8A7.05,7.05,0,0,0,16.7,9Z"/><path class="cls-1" d="M17.8,18.7a1,1,0,0,0,.5-.4,2.83,2.83,0,0,0-4-4,2.72,2.72,0,0,0,0,3.9,1,1,0,0,0,.5.4l-5.7,16a.48.48,0,0,0,.2.6h.3a.55.55,0,0,0,.5-.3l.7-2H21.9l.7,2a.55.55,0,0,0,.5.3h.2a.49.49,0,0,0,.3-.6h0ZM11.1,31.9l4.6-12.8c.2,0,.4.1.6.1a1.27,1.27,0,0,0,.6-.1l4.6,12.8Z"/></svg>