<svg id="レイヤー_1" data-name="レイヤー 1" xmlns="http://www.w3.org/2000/svg" viewBox="0 0 360 67.24"><defs><style>.cls-1{fill:#717071;}</style></defs><title>アートボード 1</title><path class="cls-1" d="M112.8,22a9.76,9.76,0,0,1,4.81,4.57V22h8.18V52.1a16.83,16.83,0,0,1-2.16,9.38c-2.4,3.61-7,5.29-13.71,5.29a17.12,17.12,0,0,1-9.86-2.4,8.94,8.94,0,0,1-4.33-7.21h9.14a4.64,4.64,0,0,0,1.2,2.16,7.43,7.43,0,0,0,4.57,1.2,6.2,6.2,0,0,0,6-2.89,14,14,0,0,0,1-6.49V49.22A8.68,8.68,0,0,1,115,52.34a10.94,10.94,0,0,1-6.49,1.92,12.26,12.26,0,0,1-9.86-4.33A17.46,17.46,0,0,1,95,38.4a19.81,19.81,0,0,1,3.61-12,12,12,0,0,1,10.1-4.81A7.72,7.72,0,0,1,112.8,22Zm2.89,22.84a9.62,9.62,0,0,0,1.92-7,11.47,11.47,0,0,0-1.92-7,5.75,5.75,0,0,0-5-2.4,6.2,6.2,0,0,0-6,4.09,17.29,17.29,0,0,0-1,5.29,11.16,11.16,0,0,0,1,5,6.2,6.2,0,0,0,6,4.09A6.54,6.54,0,0,0,115.69,44.89Z"/><path class="cls-1" d="M144.3,34.55a25.56,25.56,0,0,0,3.37-.72,2.4,2.4,0,0,0,1.68-2.4,2.77,2.77,0,0,0-1.44-2.64,8.87,8.87,0,0,0-4.09-.72,5.87,5.87,0,0,0-4.33,1.44,8,8,0,0,0-1.2,2.89h-7.93a12.74,12.74,0,0,1,2.4-7,14.93,14.93,0,0,1,11.54-4.09,20,20,0,0,1,9.38,2.16,8.3,8.3,0,0,1,4.09,7.93V49.7a3.46,3.46,0,0,0,.48,2.16,2.4,2.4,0,0,0,1.2,1V54h-9.14a5.65,5.65,0,0,1-.48-1.92c0-.48-.24-1.2-.24-1.92a13.22,13.22,0,0,1-4.09,3.13A9.11,9.11,0,0,1,139.73,55a10.48,10.48,0,0,1-7.21-2.4,8.9,8.9,0,0,1-2.89-7,8.8,8.8,0,0,1,4.57-8.42,17.53,17.53,0,0,1,7.45-1.92Zm5.29,3.85a11.73,11.73,0,0,1-1.68.72,4.81,4.81,0,0,1-2.16.48l-1.92.24A10.34,10.34,0,0,0,140,41,4,4,0,0,0,138,44.65a4.16,4.16,0,0,0,1.2,3.13,3.82,3.82,0,0,0,2.89,1,7.55,7.55,0,0,0,5-1.68,6.88,6.88,0,0,0,2.4-5.77Z"/><path class="cls-1" d="M180.85,21.33h.72v8.42h-2.4a7,7,0,0,0-6.73,3.37,11.88,11.88,0,0,0-1,5.77V54h-8.42V22H171v5.53a14.09,14.09,0,0,1,3.37-4.33,10.19,10.19,0,0,1,6.25-1.92Z"/><path class="cls-1" d="M224.37,22.29A7,7,0,0,1,228,25.17a10.75,10.75,0,0,1,1.92,4.09,24.91,24.91,0,0,1,.24,4.81V54h-8.42V33.83a9,9,0,0,0-.48-2.89,4.57,4.57,0,0,0-4.33-2.4,4.81,4.81,0,0,0-4.81,2.89,8.22,8.22,0,0,0-.48,3.61V54h-8.42V35a14.28,14.28,0,0,0-.48-4.09,4.38,4.38,0,0,0-4.09-2.4c-2.4,0-4.09.72-4.81,2.4a8.44,8.44,0,0,0-.72,3.85V54h-8.42V22.29h8.18v4.57a11.78,11.78,0,0,1,2.89-3.61,9.47,9.47,0,0,1,6-1.92,9.83,9.83,0,0,1,6,1.68,7.43,7.43,0,0,1,2.64,3.85,11.08,11.08,0,0,1,4.09-4.09,11.42,11.42,0,0,1,5.77-1.44A12.65,12.65,0,0,1,224.37,22.29Z"/><path class="cls-1" d="M244.57,18.44h-8.42V10.75h8.42ZM236.15,22h8.42V53.79h-8.42Z"/><path class="cls-1" d="M247.69,28.3V22.53H252v-8.9h8.18v8.9h5v6h-5V45.37a4.45,4.45,0,0,0,.48,2.4,6.61,6.61,0,0,0,3.13.48h1.44v6.25l-3.85.24c-3.85.24-6.73-.48-7.93-1.92A5.87,5.87,0,0,1,252,48.5V29h-4.33Z"/><path class="cls-1" d="M282.56,53.79v-43h6.25l14.19,38h0l13.95-38h6.25v43H319.1V15.32h0L304.92,53.79h-3.85L286.88,15.32h0V53.79Z"/><path class="cls-1" d="M330.17,53.79v-43h28.61v3.37H334.25V29.74h22.12v3.61H334.25V50.42H359.5v3.37Z"/><path class="cls-1" d="M39.71-8.25A39.1,39.1,0,0,0,12.05,58.6a1.19,1.19,0,1,0,1.68-1.68,36.38,36.38,0,0,1-10.82-26,36.79,36.79,0,0,1,73.58,0v0a36.38,36.38,0,0,1-10.82,26,1.15,1.15,0,0,0-.05,1.63l.05.05c.24.24.48.24,1,.24s.72,0,1-.24A39,39,0,0,0,79.14,30.95,39.55,39.55,0,0,0,39.71-8.25Z"/><path class="cls-1" d="M39.71,2.57A28.23,28.23,0,0,0,19.27,50.42,1.19,1.19,0,0,0,21,48.74h0A25.92,25.92,0,1,1,65.67,30.95a26.74,26.74,0,0,1-7.21,18,1.15,1.15,0,0,0-.05,1.63l.05.05a.89.89,0,0,0,.72.24,1.83,1.83,0,0,0,1-.48A28.23,28.23,0,0,0,39.71,2.57Z"/><path class="cls-1" d="M39.71,13.39A17.65,17.65,0,0,0,22.15,30.95a16.83,16.83,0,0,0,4.33,11.54,1.25,1.25,0,0,0,1,.48.89.89,0,0,0,.72-.24,1.15,1.15,0,0,0,.05-1.63L28.16,41a14.91,14.91,0,0,1-3.85-9.86,15.15,15.15,0,1,1,30.3,0A14.91,14.91,0,0,1,50.77,41a1.19,1.19,0,0,0,1.68,1.68,16.83,16.83,0,0,0,4.33-11.54A17,17,0,0,0,40.59,13.41Z"/><path class="cls-1" d="M43.31,36.72a4.23,4.23,0,0,0,1.2-1,6.73,6.73,0,1,0-9.62,0,5.24,5.24,0,0,0,1.2,1L22.39,74.95a1,1,0,0,0,.72,1.44h.48a1.32,1.32,0,0,0,1.2-.72l1.68-4.81H53.17l1.68,4.81a1.32,1.32,0,0,0,1.2.72h.48a1.08,1.08,0,0,0,.76-1.33l0-.11ZM27.2,68.45,38.26,37.68c.48,0,1,.24,1.44.24a3.05,3.05,0,0,0,1.44-.24L52.21,68.45Z"/></svg>